<?xml version="1.0" encoding="UTF-8" standalone="no"?><!DOCTYPE svg PUBLIC "-//W3C//DTD SVG 1.1//EN" "http://www.w3.org/Graphics/SVG/1.1/DTD/svg11.dtd"><svg width="100%" height="100%" viewBox="0 0 85 66" version="1.1" xmlns="http://www.w3.org/2000/svg" xmlns:xlink="http://www.w3.org/1999/xlink" xml:space="preserve" xmlns:serif="http://www.serif.com/" style="fill-rule:evenodd;clip-rule:evenodd;stroke-linejoin:round;stroke-miterlimit:2;"><path d="M42.907,0.018c-0,0 0.846,0.013 1.553,0.073c8.587,0.687 15.907,4.497 21.96,11.43c0.967,1.107 2.18,1.6 3.64,1.48c3.013,-0.24 5.493,-1.96 7.44,-5.16c0.373,-0.007 0.623,0.16 0.75,0.5l-3.94,5.16c-0.18,0.24 -0.46,0.41 -0.78,0.49l-12.78,2.99c-0.49,0.11 -0.97,-0.19 -1.06,-0.66c-0.24,-1.373 -0.887,-2.723 -1.94,-4.05c-3.2,-4.033 -7.153,-6.577 -11.86,-7.63c-3.647,-0.813 -7.223,-0.557 -10.73,0.77c-3.513,1.32 -6.56,3.483 -9.14,6.49c-1.4,1.633 -1.92,3.03 -1.56,4.19c0.46,1.5 0.247,1.863 -0.64,1.09c-0.25,-0.22 -0.55,-0.35 -0.86,-0.38c-1.873,-0.153 -3.683,-0.583 -5.43,-1.29c-2.027,-0.827 -4.113,-1.217 -6.26,-1.17c-0.73,0.01 -1.4,-0.39 -1.74,-1.04c-1.233,-2.433 -2.97,-4.393 -5.21,-5.88c-0.307,-0.2 -0.603,-0.34 -0.89,-0.42c-1.073,-0.3 -1.31,0.057 -0.71,1.07c0.14,0.233 0.38,0.507 0.72,0.82c1.18,1.113 2.083,2.533 2.71,4.26c0.753,2.087 1.937,4.087 3.55,6c0.19,0.23 0.48,0.38 0.82,0.43c0.947,0.153 1.907,0.593 2.88,1.32c2.027,1.513 4.567,2.89 7.62,4.13c0.447,0.18 0.747,0.05 0.9,-0.39c0.13,-0.38 0.35,-0.65 0.56,-0.68c0.38,-0.053 0.65,0.233 0.81,0.86c0.487,1.927 1.303,2.467 2.45,1.62c1.08,-0.8 1.303,-0.61 0.67,0.57c-0.487,0.9 -0.523,1.71 -0.11,2.43c0.247,0.433 0.817,0.88 1.71,1.34c3.767,1.953 7.463,4.033 11.09,6.24c0.3,0.18 0.64,0.22 0.9,0.11c0.82,-0.347 1.057,-1.027 0.71,-2.04c-0.42,-1.22 -1.363,-3.013 -2.83,-5.38c-0.16,-0.267 -0.137,-0.387 0.07,-0.36c0.11,0.01 0.22,0.09 0.32,0.21l3.57,4.58c0.15,0.19 0.45,0.19 0.61,-0.01c0.46,-0.56 0.973,-1.063 1.54,-1.51c0.54,-0.427 0.777,-0.377 0.71,0.15c-0.02,0.153 -0.09,0.31 -0.21,0.47c-0.687,0.933 -1.197,1.953 -1.53,3.06c-0.147,0.027 -0.23,0.11 -0.25,0.25c-2.6,0.8 -3.49,2.41 -2.67,4.83c0.14,0.42 0.033,0.557 -0.32,0.41c-0.193,-0.08 -0.367,-0.233 -0.52,-0.46c-1.72,-2.547 -3.363,-2.523 -4.93,0.07c-1.16,1.92 -0.75,3.817 1.23,5.69c-0.727,0.387 -1.393,0.303 -2,-0.25c0.133,-1.347 -0.463,-2.107 -1.79,-2.28c-0.31,-0.04 -0.57,-0.26 -0.69,-0.56l-1.77,-4.66c0.98,0.353 1.64,1 1.98,1.94c0.227,0.627 0.39,1.02 0.49,1.18c0.86,1.413 1.367,1.223 1.52,-0.57c0.027,-0.28 0.123,-0.583 0.29,-0.91c0.22,-0.42 0.343,-0.867 0.37,-1.34c0.02,-0.28 -0.16,-0.57 -0.45,-0.73c-2.527,-1.42 -4.493,-3.407 -5.9,-5.96c-0.98,-1.78 -2.273,-3.55 -3.88,-5.31c-0.373,-0.413 -0.823,-0.713 -1.35,-0.9c-3.953,-1.427 -7.137,-3.107 -9.55,-5.04c-1.253,-1.007 -1.547,-0.777 -0.88,0.69c0.807,1.767 2,3.18 3.58,4.24c0.27,0.18 0.48,0.44 0.58,0.74c1.073,3.04 3.513,5.84 7.32,8.4c0.67,0.45 1.08,1.2 1.09,2.01c0.047,2.46 0.517,4.89 1.41,7.29c0.567,1.513 1.7,2.917 3.4,4.21c1.367,1.027 3,2.573 4.9,4.64c1.847,1.993 3.487,3.25 4.92,3.77c3.307,1.2 6.29,0.553 8.95,-1.94c1.887,-1.773 2.86,-2.683 2.92,-2.73c1.547,-1.26 3.07,-2.54 4.57,-3.84c3.293,-2.86 4.593,-6.53 3.9,-11.01c-0.1,-0.67 0.18,-1.38 0.74,-1.88l7.01,-6.3c0.45,-0.4 0.63,-1.05 0.46,-1.68c-0.187,-0.693 -0.003,-1.247 0.55,-1.66c0.8,-0.593 1.22,-0.91 1.26,-0.95c0.993,-1.1 1.843,-2.303 2.55,-3.61c1.207,-0.84 1.763,-0.507 1.67,1c2.513,14.84 -1.503,26.483 -12.05,34.93c-3.64,2.92 -7.543,4.913 -11.71,5.98c-4.347,1.107 -8.83,1.373 -13.45,0.8c-8.573,-1.727 -15.323,-5.797 -20.25,-12.21c-6.693,-8.727 -8.577,-18.7 -5.65,-29.92c0.08,-0.31 -0.02,-0.64 -0.26,-0.85c-2.053,-1.867 -3.42,-4.193 -4.1,-6.98c-0.307,-1.26 -0.817,-2.427 -1.53,-3.5c-0.82,-1.4 -1.96,-2.483 -3.42,-3.25l-1.25,-3.25c0.56,-0.28 1.13,-0.267 1.71,0.04c3.033,1.62 5.823,3.873 8.37,6.76c0.82,0.933 1.85,1.477 3.09,1.63c2.72,0.34 4.247,-0.637 4.58,-2.93l0.5,-0.75c0.593,-0.067 1.267,-0.547 2.02,-1.44c1.433,-1.693 3.53,-3.458 6.383,-4.945c0.054,-0.026 0.447,-0.264 1.297,-0.735c0.613,-0.34 1.605,-0.794 2.279,-0.976c0.582,-0.156 1.025,-0.39 2.231,-0.694l6.592,-0.739c1.605,-0.076 2.179,-0.071 3.855,-0.044Zm-29.167,28.433c-0.553,1.16 -0.163,2.527 1.17,4.1c0.37,0.44 1,0.55 1.5,0.28c0.973,-0.533 1.037,-1.023 0.19,-1.47c-0.33,-0.18 -0.58,-0.41 -0.68,-0.65c-0.307,-0.707 -0.35,-1.427 -0.13,-2.16c0.1,-0.34 0.06,-0.66 -0.11,-0.87c-0.653,-0.813 -1.3,-0.557 -1.94,0.77Zm54.58,1.96c-1.38,1.667 -1.267,2.47 0.34,2.41c0.32,-0.01 0.63,-0.16 0.85,-0.4c1.32,-1.38 1.6,-2.987 0.84,-4.82c-0.11,-0.28 -0.41,-0.44 -0.69,-0.37c-1.12,0.273 -1.507,1.05 -1.16,2.33c0.08,0.3 0.01,0.62 -0.18,0.85Zm-31.48,6.67l-5.8,-3.97c-1.427,-0.973 -1.773,-0.65 -1.04,0.97c1.32,2.9 3.457,4.32 6.41,4.26c1.467,-0.027 1.61,-0.447 0.43,-1.26Z" style="fill:#22622e;fill-rule:nonzero;"/><path d="M78.25,8.341l0.71,-0.54c0.413,0.06 0.76,0.24 1.04,0.54l-4.89,10.23c-0.1,0.21 -0.36,0.4 -0.7,0.51l-2.2,0.72c-2.667,2.1 -5.593,3.723 -8.78,4.87c-0.26,0.1 -0.58,0.07 -0.91,-0.08c-0.487,-0.22 -0.937,-0.213 -1.35,0.02c-0.2,0.11 -0.36,0.42 -0.4,0.8c-0.08,0.667 -0.497,0.897 -1.25,0.69c-0.893,-0.24 -1.78,-0.523 -2.66,-0.85c-0.86,-0.327 -0.67,0.4 0.57,2.18c0.21,0.31 0.27,0.7 0.14,1.06c-0.687,1.86 -2.12,3.08 -4.3,3.66c-1.713,0.46 -3.66,1.68 -5.84,3.66c-1.32,1.2 -2.81,1.363 -4.47,0.49c0.333,-1.107 0.843,-2.127 1.53,-3.06c0.12,-0.16 0.19,-0.317 0.21,-0.47c0.067,-0.527 -0.17,-0.577 -0.71,-0.15c-0.567,0.447 -1.08,0.95 -1.54,1.51c-0.16,0.2 -0.46,0.2 -0.61,0.01l-3.57,-4.58c-0.1,-0.12 -0.21,-0.2 -0.32,-0.21c-0.207,-0.027 -0.23,0.093 -0.07,0.36c1.467,2.367 2.41,4.16 2.83,5.38c0.347,1.013 0.11,1.693 -0.71,2.04c-0.26,0.11 -0.6,0.07 -0.9,-0.11c-3.627,-2.207 -7.323,-4.287 -11.09,-6.24c-0.893,-0.46 -1.463,-0.907 -1.71,-1.34c-0.413,-0.72 -0.377,-1.53 0.11,-2.43c0.633,-1.18 0.41,-1.37 -0.67,-0.57c-1.147,0.847 -1.963,0.307 -2.45,-1.62c-0.16,-0.627 -0.43,-0.913 -0.81,-0.86c-0.21,0.03 -0.43,0.3 -0.56,0.68c-0.153,0.44 -0.453,0.57 -0.9,0.39c-3.053,-1.24 -5.593,-2.617 -7.62,-4.13c-0.973,-0.727 -1.933,-1.167 -2.88,-1.32c-0.34,-0.05 -0.63,-0.2 -0.82,-0.43c-1.613,-1.913 -2.797,-3.913 -3.55,-6c-0.627,-1.727 -1.53,-3.147 -2.71,-4.26c-0.34,-0.313 -0.58,-0.587 -0.72,-0.82c-0.6,-1.013 -0.363,-1.37 0.71,-1.07c0.287,0.08 0.583,0.22 0.89,0.42c2.24,1.487 3.977,3.447 5.21,5.88c0.34,0.65 1.01,1.05 1.74,1.04c2.147,-0.047 4.233,0.343 6.26,1.17c1.747,0.707 3.557,1.137 5.43,1.29c0.31,0.03 0.61,0.16 0.86,0.38c0.887,0.773 1.1,0.41 0.64,-1.09c-0.36,-1.16 0.16,-2.557 1.56,-4.19c2.58,-3.007 5.627,-5.17 9.14,-6.49c3.507,-1.327 7.083,-1.583 10.73,-0.77c4.707,1.053 8.66,3.597 11.86,7.63c1.053,1.327 1.7,2.677 1.94,4.05c0.09,0.47 0.57,0.77 1.06,0.66l12.78,-2.99c0.32,-0.08 0.6,-0.25 0.78,-0.49l3.94,-5.16Z" style="fill:#fff;fill-rule:nonzero;"/><path d="M82.92,7.341c-0.373,0.007 -0.623,-0.16 -0.75,-0.5c-0.067,-1.813 0.543,-2.47 1.83,-1.97c0.27,0.11 0.4,0.42 0.28,0.68c-0.3,0.687 -0.753,1.283 -1.36,1.79Z" style="fill:#22622e;fill-rule:nonzero;"/><path d="M78.96,7.801l-0.71,0.54c-0.127,-0.34 -0.377,-0.507 -0.75,-0.5l1.41,-1.6c0.2,-0.23 0.53,-0.32 0.86,-0.24c1.287,0.327 1.017,0.927 -0.81,1.8Z" style="fill:#8b9784;fill-rule:nonzero;"/><path d="M82.17,6.841c0.127,0.34 0.377,0.507 0.75,0.5c-1.54,1.487 -2.707,3.237 -3.5,5.25l-2.53,6.02c-0.41,0.98 -1.06,1.7 -1.79,1.99c-1.14,0.447 -1.59,1.11 -1.35,1.99l-0.08,0.5c0.093,-1.507 -0.463,-1.84 -1.67,-1c0.027,-0.387 -0.153,-0.567 -0.54,-0.54c0.62,-0.467 0.87,-1.05 0.75,-1.75l2.2,-0.72c0.34,-0.11 0.6,-0.3 0.7,-0.51l4.89,-10.23c0.893,-0.313 1.617,-0.813 2.17,-1.5Z" style="fill:#8b9784;fill-rule:nonzero;"/><path d="M72.21,19.801c0.12,0.7 -0.13,1.283 -0.75,1.75c-2.68,2.233 -5.733,3.817 -9.16,4.75c-1.027,0.28 -1.867,0.84 -2.52,1.68c-2.507,3.187 -4.593,6.243 -6.26,9.17c-0.587,1.033 -1.673,1.403 -3.26,1.11c-0.327,-0.06 -0.33,-0.147 -0.01,-0.26c1.827,-0.64 3.1,-1.82 3.82,-3.54c0.487,-1.16 0.14,-1.513 -1.04,-1.06c-2.607,1 -4.927,2.447 -6.96,4.34c-0.23,0.22 -0.36,0.52 -0.36,0.84l-0,0.72c-0.467,0.7 -0.803,1.463 -1.01,2.29c-0.4,1.587 -0.713,1.697 -0.94,0.33c-0.033,-0.193 -0.037,-0.41 -0.01,-0.65c0.18,-1.707 -0.167,-3.28 -1.04,-4.72c0.02,-0.14 0.103,-0.223 0.25,-0.25c1.66,0.873 3.15,0.71 4.47,-0.49c2.18,-1.98 4.127,-3.2 5.84,-3.66c2.18,-0.58 3.613,-1.8 4.3,-3.66c0.13,-0.36 0.07,-0.75 -0.14,-1.06c-1.24,-1.78 -1.43,-2.507 -0.57,-2.18c0.88,0.327 1.767,0.61 2.66,0.85c0.753,0.207 1.17,-0.023 1.25,-0.69c0.04,-0.38 0.2,-0.69 0.4,-0.8c0.413,-0.233 0.863,-0.24 1.35,-0.02c0.33,0.15 0.65,0.18 0.91,0.08c3.187,-1.147 6.113,-2.77 8.78,-4.87Z" style="fill:#1e3c2a;fill-rule:nonzero;"/><path d="M29.25,39.341l-0.08,-0.25c0.86,-1.94 0.77,-2.553 -0.27,-1.84c-0.28,0.193 -0.5,0.473 -0.66,0.84c-0.54,1.207 -1.083,2.407 -1.63,3.6c-0.12,0.25 -0.04,0.56 0.19,0.75c0.447,0.373 0.763,0.84 0.95,1.4c0.193,0.713 0.743,1.483 1.65,2.31c1.5,1.38 3,2.757 4.5,4.13c0.18,0.173 1.127,1.29 2.84,3.35c1.76,2.113 4.063,2.813 6.91,2.1c1.12,-0.287 2.247,-1.063 3.38,-2.33c1.647,-1.847 3.447,-3.543 5.4,-5.09c2.12,-1.68 3.657,-3.763 4.61,-6.25c0.12,-0.31 0.11,-0.64 -0.02,-0.94l-1.5,-3.22c-0.58,-1.253 -1.017,-1.197 -1.31,0.17c-0.373,1.773 -1.167,3.47 -2.38,5.09c-0.14,0.19 -0.44,0.14 -0.54,-0.09l-2.13,-4.51c-0.13,-0.26 -0.4,-0.46 -0.74,-0.54c-1.127,-0.233 -1.78,0.193 -1.96,1.28c-0.253,0.06 -0.503,0.06 -0.75,0l0,-0.72c0,-0.32 0.13,-0.62 0.36,-0.84c2.033,-1.893 4.353,-3.34 6.96,-4.34c1.18,-0.453 1.527,-0.1 1.04,1.06c-0.72,1.72 -1.993,2.9 -3.82,3.54c-0.32,0.113 -0.317,0.2 0.01,0.26c1.587,0.293 2.673,-0.077 3.26,-1.11c1.667,-2.927 3.753,-5.983 6.26,-9.17c0.653,-0.84 1.493,-1.4 2.52,-1.68c3.427,-0.933 6.48,-2.517 9.16,-4.75c0.387,-0.027 0.567,0.153 0.54,0.54c-0.707,1.307 -1.557,2.51 -2.55,3.61c-0.04,0.04 -0.46,0.357 -1.26,0.95c-0.553,0.413 -0.737,0.967 -0.55,1.66c0.17,0.63 -0.01,1.28 -0.46,1.68l-7.01,6.3c-0.56,0.5 -0.84,1.21 -0.74,1.88c0.693,4.48 -0.607,8.15 -3.9,11.01c-1.5,1.3 -3.023,2.58 -4.57,3.84c-0.06,0.047 -1.033,0.957 -2.92,2.73c-2.66,2.493 -5.643,3.14 -8.95,1.94c-1.433,-0.52 -3.073,-1.777 -4.92,-3.77c-1.9,-2.067 -3.533,-3.613 -4.9,-4.64c-1.7,-1.293 -2.833,-2.697 -3.4,-4.21c-0.893,-2.4 -1.363,-4.83 -1.41,-7.29c-0.01,-0.81 -0.42,-1.56 -1.09,-2.01c-3.807,-2.56 -6.247,-5.36 -7.32,-8.4c-0.1,-0.3 -0.31,-0.56 -0.58,-0.74c-1.58,-1.06 -2.773,-2.473 -3.58,-4.24c-0.667,-1.467 -0.373,-1.697 0.88,-0.69c2.413,1.933 5.597,3.613 9.55,5.04c0.527,0.187 0.977,0.487 1.35,0.9c1.607,1.76 2.9,3.53 3.88,5.31c1.407,2.553 3.373,4.54 5.9,5.96c0.29,0.16 0.47,0.45 0.45,0.73c-0.027,0.473 -0.15,0.92 -0.37,1.34c-0.167,0.327 -0.263,0.63 -0.29,0.91c-0.153,1.793 -0.66,1.983 -1.52,0.57c-0.1,-0.16 -0.263,-0.553 -0.49,-1.18c-0.34,-0.94 -1,-1.587 -1.98,-1.94Z" style="fill:#fff;fill-rule:nonzero;"/><path d="M13.74,28.451c0.64,-1.327 1.287,-1.583 1.94,-0.77c0.17,0.21 0.21,0.53 0.11,0.87c-0.22,0.733 -0.177,1.453 0.13,2.16c0.1,0.24 0.35,0.47 0.68,0.65c0.847,0.447 0.783,0.937 -0.19,1.47c-0.5,0.27 -1.13,0.16 -1.5,-0.28c-1.333,-1.573 -1.723,-2.94 -1.17,-4.1Z" style="fill:#fff;fill-rule:nonzero;"/><path d="M68.5,29.561c-0.347,-1.28 0.04,-2.057 1.16,-2.33c0.28,-0.07 0.58,0.09 0.69,0.37c0.76,1.833 0.48,3.44 -0.84,4.82c-0.22,0.24 -0.53,0.39 -0.85,0.4c-1.607,0.06 -1.72,-0.743 -0.34,-2.41c0.19,-0.23 0.26,-0.55 0.18,-0.85Z" style="fill:#eceacf;fill-rule:nonzero;"/><path d="M36.84,37.081c1.18,0.813 1.037,1.233 -0.43,1.26c-2.953,0.06 -5.09,-1.36 -6.41,-4.26c-0.733,-1.62 -0.387,-1.943 1.04,-0.97l5.8,3.97Z" style="fill:#fff;fill-rule:nonzero;"/><path d="M42.71,36.551c0.873,1.44 1.22,3.013 1.04,4.72c-0.027,0.24 -0.023,0.457 0.01,0.65c0.227,1.367 0.54,1.257 0.94,-0.33c0.207,-0.827 0.543,-1.59 1.01,-2.29c0.247,0.06 0.497,0.06 0.75,0c1.98,0.333 3.087,1.29 3.32,2.87c0.147,0.933 -0.187,2.14 -1,3.62c-0.907,1.667 -1.823,3.323 -2.75,4.97c-0.96,1.713 -1.973,2.81 -3.04,3.29c-2.093,0.927 -3.7,-0.06 -4.82,-2.96l-2.67,-4c-1.98,-1.873 -2.39,-3.77 -1.23,-5.69c1.567,-2.593 3.21,-2.617 4.93,-0.07c0.153,0.227 0.327,0.38 0.52,0.46c0.353,0.147 0.46,0.01 0.32,-0.41c-0.82,-2.42 0.07,-4.03 2.67,-4.83Z" style="fill:#fff;fill-rule:nonzero;"/><path d="M29.17,39.091c-1.42,1.34 -1.74,2.91 -0.96,4.71l-0.46,0.04c-0.187,-0.56 -0.503,-1.027 -0.95,-1.4c-0.23,-0.19 -0.31,-0.5 -0.19,-0.75c0.547,-1.193 1.09,-2.393 1.63,-3.6c0.16,-0.367 0.38,-0.647 0.66,-0.84c1.04,-0.713 1.13,-0.1 0.27,1.84Z" style="fill:#22622e;fill-rule:nonzero;"/><path d="M27.75,43.841l0.46,-0.04l4.75,3.33c0.747,1.427 1.793,2.56 3.14,3.4c0.22,0.14 0.433,0.37 0.64,0.69c0.38,0.58 0.857,0.537 1.43,-0.13c1.12,2.9 2.727,3.887 4.82,2.96c1.067,-0.48 2.08,-1.577 3.04,-3.29c0.927,-1.647 1.843,-3.303 2.75,-4.97c0.813,-1.48 1.147,-2.687 1,-3.62c-0.233,-1.58 -1.34,-2.537 -3.32,-2.87c0.18,-1.087 0.833,-1.513 1.96,-1.28c0.34,0.08 0.61,0.28 0.74,0.54l2.13,4.51c0.1,0.23 0.4,0.28 0.54,0.09c1.213,-1.62 2.007,-3.317 2.38,-5.09c0.293,-1.367 0.73,-1.423 1.31,-0.17l1.5,3.22c0.13,0.3 0.14,0.63 0.02,0.94c-0.953,2.487 -2.49,4.57 -4.61,6.25c-1.953,1.547 -3.753,3.243 -5.4,5.09c-1.133,1.267 -2.26,2.043 -3.38,2.33c-2.847,0.713 -5.15,0.013 -6.91,-2.1c-1.713,-2.06 -2.66,-3.177 -2.84,-3.35c-1.5,-1.373 -3,-2.75 -4.5,-4.13c-0.907,-0.827 -1.457,-1.597 -1.65,-2.31Zm26.96,-4.01c-0.847,1.22 -1.23,2.387 -1.15,3.5c0.107,1.493 0.67,1.907 1.69,1.24c0.26,-0.17 0.46,-0.44 0.55,-0.77c0.4,-1.46 0.257,-2.773 -0.43,-3.94c-0.14,-0.25 -0.5,-0.26 -0.66,-0.03Zm-3.67,5.04c-0.767,1.187 -1.537,2.51 -2.31,3.97c-0.64,1.22 -0.373,1.47 0.8,0.75c1.267,-0.773 2.197,-2.117 2.79,-4.03c0.11,-0.33 0.06,-0.67 -0.12,-0.9c-0.373,-0.487 -0.76,-0.417 -1.16,0.21Z" style="fill:#22622e;fill-rule:nonzero;"/><path d="M29.17,39.091l0.08,0.25l1.77,4.66c0.12,0.3 0.38,0.52 0.69,0.56c1.327,0.173 1.923,0.933 1.79,2.28c-0.113,0.227 -0.293,0.323 -0.54,0.29l-4.75,-3.33c-0.78,-1.8 -0.46,-3.37 0.96,-4.71Z" style="fill:#eceacf;fill-rule:nonzero;"/><path d="M54.71,39.831c0.16,-0.23 0.52,-0.22 0.66,0.03c0.687,1.167 0.83,2.48 0.43,3.94c-0.09,0.33 -0.29,0.6 -0.55,0.77c-1.02,0.667 -1.583,0.253 -1.69,-1.24c-0.08,-1.113 0.303,-2.28 1.15,-3.5Z" style="fill:#fff;fill-rule:nonzero;"/><path d="M51.04,44.871c0.4,-0.627 0.787,-0.697 1.16,-0.21c0.18,0.23 0.23,0.57 0.12,0.9c-0.593,1.913 -1.523,3.257 -2.79,4.03c-1.173,0.72 -1.44,0.47 -0.8,-0.75c0.773,-1.46 1.543,-2.783 2.31,-3.97Z" style="fill:#e5e3c3;fill-rule:nonzero;"/><path d="M33.5,46.841c0.607,0.553 1.273,0.637 2,0.25l2.67,4c-0.573,0.667 -1.05,0.71 -1.43,0.13c-0.207,-0.32 -0.42,-0.55 -0.64,-0.69c-1.347,-0.84 -2.393,-1.973 -3.14,-3.4c0.247,0.033 0.427,-0.063 0.54,-0.29Z" style="fill:#8b9784;fill-rule:nonzero;"/></svg>